<svg xmlns="http://www.w3.org/2000/svg" xmlns:xlink="http://www.w3.org/1999/xlink" id="Capa_1" x="0px" y="0px" viewBox="0 0 291 140" style="enable-background:new 0 0 291 140;" xml:space="preserve">
<style type="text/css">
	.st0{fill:#1E1E1E;}
</style>
<path class="st0" d="M104.7,79.9c0.2,0,0.5,0.1,0.9,0.1c0.3,0,0.8,0,1.3,0c1.1,0,2.2-0.1,3.2-0.4c1-0.3,1.8-0.7,2.5-1.4  c0.7-0.7,1.3-1.6,1.7-2.8c0.4-1.2,0.6-2.7,0.6-4.5c0-1.8-0.2-3.3-0.6-4.4c-0.4-1.2-1-2.1-1.7-2.8c-0.7-0.7-1.5-1.2-2.5-1.5  c-0.9-0.3-1.9-0.4-2.9-0.4c-0.3,0-0.7,0-1.2,0c-0.5,0-0.9,0-1.2,0.1V79.9 M99.2,57.5c1-0.1,2.1-0.2,3.3-0.3c1.1-0.1,2.4-0.1,3.8-0.1  c4.7,0,8.2,1.2,10.7,3.5c2.4,2.3,3.6,5.8,3.6,10.5c0,4.7-1.2,8.1-3.7,10.3c-2.5,2.2-6.1,3.3-11,3.3c-1.3,0-2.4,0-3.5-0.1  c-1.1-0.1-2.1-0.2-3.2-0.3V57.5z"></path>
<path class="st0" d="M135.9,72.5c0-1.2-0.4-2.1-1-2.9c-0.6-0.7-1.5-1.1-2.5-1.1c-1.2,0-2.2,0.3-2.8,1c-0.6,0.7-1,1.7-1.1,2.9H135.9   M128.4,76.2c0.1,1.5,0.6,2.6,1.6,3.2c0.9,0.7,2.2,1,3.7,1c0.8,0,1.7-0.1,2.6-0.2c0.9-0.2,1.7-0.4,2.5-0.7c0.3,0.5,0.5,1.1,0.7,1.8  c0.2,0.7,0.3,1.4,0.3,2.2c-1.9,0.7-4.1,1.1-6.5,1.1c-1.8,0-3.3-0.2-4.6-0.7c-1.3-0.5-2.3-1.2-3.1-2.1c-0.8-0.9-1.4-1.9-1.8-3.1  c-0.4-1.2-0.6-2.5-0.6-4c0-1.4,0.2-2.7,0.6-4c0.4-1.2,1-2.3,1.8-3.2c0.8-0.9,1.7-1.6,2.9-2.2c1.1-0.5,2.5-0.8,4-0.8  c1.3,0,2.5,0.2,3.6,0.7c1,0.5,1.9,1.1,2.6,1.9c0.7,0.8,1.3,1.8,1.6,2.9c0.4,1.1,0.6,2.3,0.6,3.6c0,0.5,0,0.9-0.1,1.4  c0,0.5-0.1,0.8-0.1,1.1H128.4z"></path>
<path class="st0" d="M149.4,80.1c0.7,0.2,1.4,0.3,2.3,0.3c1.5,0,2.7-0.5,3.5-1.5s1.2-2.5,1.2-4.5c0-0.8-0.1-1.5-0.2-2.1  c-0.1-0.7-0.3-1.2-0.6-1.7c-0.3-0.5-0.7-0.8-1.1-1.1c-0.5-0.3-1-0.4-1.7-0.4c-0.6,0-1.1,0.1-1.6,0.4c-0.4,0.2-0.8,0.6-1.1,1  c-0.3,0.4-0.5,0.9-0.6,1.4c-0.1,0.5-0.2,1.1-0.2,1.7V80.1 M144.1,65c0.3-0.1,0.7-0.1,1-0.1c0.3,0,0.7,0,1.1,0c0.7,0,1.4,0.1,2.1,0.2  c0.1,0.1,0.1,0.3,0.2,0.5c0.1,0.2,0.1,0.5,0.2,0.8c0.1,0.3,0.1,0.5,0.1,0.8c0,0.3,0.1,0.5,0.1,0.7c0.2-0.4,0.5-0.8,0.8-1.2  c0.3-0.4,0.7-0.7,1.2-1c0.5-0.3,1-0.5,1.5-0.7c0.6-0.2,1.2-0.3,1.9-0.3c1.1,0,2.1,0.2,3,0.6c0.9,0.4,1.7,1,2.4,1.8  c0.7,0.8,1.2,1.8,1.6,3c0.4,1.2,0.6,2.6,0.6,4.3c0,1.6-0.2,3-0.7,4.3c-0.5,1.3-1.1,2.4-2,3.2c-0.9,0.9-2,1.6-3.3,2.1  c-1.3,0.5-2.7,0.7-4.4,0.7c-0.4,0-0.8,0-1.2-0.1c-0.4,0-0.7-0.1-1-0.1V93c-0.5,0.1-0.9,0.1-1.4,0.1c-0.4,0-0.9,0-1.3,0  c-0.4,0-0.8,0-1.3,0c-0.4,0-0.9-0.1-1.3-0.1V65z"></path>
<path class="st0" d="M165,65c0.9-0.2,1.8-0.2,2.6-0.2c0.9,0,1.7,0.1,2.6,0.2v10.2c0,1,0.1,1.8,0.2,2.5c0.2,0.7,0.4,1.2,0.7,1.6  c0.3,0.4,0.7,0.7,1.2,0.8c0.5,0.2,1.1,0.2,1.7,0.2c0.9,0,1.7-0.1,2.3-0.3V65c0.9-0.2,1.8-0.2,2.6-0.2c0.9,0,1.7,0.1,2.6,0.2v18.4  c-0.8,0.3-1.8,0.5-3.1,0.8c-1.3,0.3-2.6,0.4-4.1,0.4c-1.3,0-2.5-0.1-3.6-0.3c-1.2-0.2-2.2-0.6-3.1-1.3c-0.9-0.6-1.6-1.6-2.1-2.8  c-0.5-1.2-0.8-2.9-0.8-4.9V65"></path>
<path class="st0" d="M186.4,69H184l-0.2-0.7l6.9-8.9h0.9V65h4.5c0.1,0.4,0.1,0.7,0.2,1c0,0.3,0,0.6,0,0.9c0,0.3,0,0.7,0,1  c0,0.3-0.1,0.7-0.2,1.1h-4.5v7.5c0,0.8,0.1,1.4,0.2,1.9c0.1,0.5,0.3,0.8,0.5,1.1c0.2,0.3,0.5,0.5,0.9,0.6c0.3,0.1,0.8,0.1,1.2,0.1  c0.4,0,0.7,0,1.1-0.1c0.4-0.1,0.7-0.1,0.9-0.2c0.2,0.5,0.3,1,0.4,1.5c0.1,0.5,0.1,1,0.1,1.4c0,0.3,0,0.5,0,0.7c0,0.2,0,0.4-0.1,0.5  c-1.1,0.3-2.3,0.4-3.5,0.4c-2.2,0-4-0.5-5.2-1.6c-1.2-1.1-1.8-2.8-1.8-5.1V69"></path>
<path class="st0" d="M209.3,75.4c-0.3,0-0.6-0.1-1-0.1c-0.3,0-0.7-0.1-0.9-0.1c-1.2,0-2.2,0.2-2.9,0.7c-0.7,0.4-1.1,1.1-1.1,2.1  c0,0.6,0.1,1.1,0.4,1.5c0.3,0.3,0.6,0.6,1,0.8c0.4,0.2,0.8,0.3,1.2,0.3c0.4,0,0.8,0.1,1.1,0.1c0.4,0,0.7,0,1.1-0.1  c0.4-0.1,0.7-0.1,1-0.2V75.4 M209.3,71.6c0-0.6-0.1-1.1-0.3-1.4c-0.2-0.4-0.5-0.7-0.8-0.9c-0.3-0.2-0.8-0.4-1.3-0.4  c-0.5-0.1-1.1-0.1-1.7-0.1c-1.3,0-2.8,0.3-4.3,0.8c-0.3-0.6-0.6-1.2-0.8-1.8c-0.2-0.6-0.3-1.2-0.3-2c1.1-0.4,2.2-0.6,3.3-0.8  c1.1-0.2,2.1-0.3,3-0.3c2.6,0,4.6,0.6,6,1.9c1.4,1.2,2.2,3.2,2.2,5.9v11.1c-0.9,0.3-1.9,0.5-3.1,0.8c-1.2,0.2-2.6,0.4-4.2,0.4  c-1.3,0-2.4-0.1-3.5-0.3c-1.1-0.2-2-0.6-2.7-1.1c-0.8-0.5-1.3-1.2-1.7-2c-0.4-0.8-0.6-1.8-0.6-3c0-1.2,0.3-2.2,0.8-3  c0.5-0.8,1.2-1.4,2-1.9c0.8-0.5,1.7-0.8,2.7-1c1-0.2,2-0.3,3-0.3c0.7,0,1.5,0,2.4,0.1V71.6z"></path>
<path class="st0" d="M231.2,79.7c0.3,0.5,0.5,1.1,0.7,1.7c0.2,0.7,0.3,1.4,0.3,2.3c-1,0.4-1.9,0.6-2.8,0.8c-0.9,0.1-1.8,0.2-2.7,0.2  c-1.6,0-3-0.3-4.2-0.8c-1.2-0.5-2.2-1.2-2.9-2.1c-0.8-0.9-1.4-1.9-1.8-3.2c-0.4-1.2-0.6-2.6-0.6-4c0-1.4,0.2-2.7,0.6-3.9  c0.4-1.2,1-2.3,1.7-3.2c0.8-0.9,1.7-1.6,2.9-2.2c1.2-0.5,2.5-0.8,4-0.8c0.5,0,1,0,1.5,0c0.5,0,0.9,0.1,1.3,0.1  c0.4,0.1,0.8,0.2,1.3,0.3c0.4,0.1,0.9,0.3,1.4,0.5c0,0.6-0.1,1.2-0.2,1.9c-0.1,0.7-0.4,1.4-0.7,2c-0.7-0.2-1.4-0.4-1.9-0.5  c-0.6-0.1-1.2-0.1-1.9-0.1c-1.5,0-2.7,0.5-3.5,1.5c-0.8,1-1.2,2.4-1.2,4.3c0,2,0.4,3.5,1.3,4.4c0.8,0.9,2,1.4,3.4,1.4  c0.4,0,0.7,0,1,0c0.3,0,0.6,0,0.9-0.1c0.3,0,0.6-0.1,0.9-0.2C230.4,79.9,230.8,79.8,231.2,79.7"></path>
<path class="st0" d="M235.8,61.8c-0.1-0.8-0.2-1.7-0.2-2.5c0-0.8,0.1-1.6,0.2-2.5c0.4-0.1,0.9-0.1,1.4-0.2c0.5,0,0.9-0.1,1.3-0.1  c0.4,0,0.9,0,1.4,0.1c0.5,0,0.9,0.1,1.4,0.2c0.1,0.4,0.1,0.8,0.1,1.2c0,0.4,0,0.8,0,1.2c0,0.4,0,0.8,0,1.2c0,0.4-0.1,0.8-0.1,1.3  c-0.4,0.1-0.9,0.1-1.3,0.1c-0.5,0-0.9,0-1.4,0c-0.4,0-0.8,0-1.3,0C236.7,61.9,236.3,61.9,235.8,61.8 M236.6,69h-2.5  c-0.1-0.3-0.1-0.7-0.2-1c0-0.4-0.1-0.7-0.1-1c0-0.7,0.1-1.3,0.2-2h7.6v19.2c-0.9,0.1-1.8,0.2-2.6,0.2c-0.8,0-1.7-0.1-2.6-0.2V69z"></path>
<path class="st0" d="M254.6,57.5c1-0.1,2.1-0.2,3.3-0.2c0.6,0,1.2,0,1.7,0.1c0.5,0,0.9,0.1,1.4,0.2l-5.6,4.6c-0.3,0-0.7,0.1-1.1,0.1  c-0.4,0-0.9,0.1-1.4,0.1c-0.8,0-1.6-0.1-2.4-0.2L254.6,57.5 M254.2,80.6c1.4,0,2.4-0.5,3-1.5c0.6-1,0.9-2.5,0.9-4.4  c0-1.9-0.3-3.4-0.9-4.4c-0.6-1-1.6-1.5-3-1.5c-1.4,0-2.3,0.5-2.9,1.5c-0.6,1-0.9,2.5-0.9,4.4c0,1.9,0.3,3.4,0.9,4.4  C251.9,80.1,252.9,80.6,254.2,80.6z M254.2,84.6c-1.6,0-2.9-0.3-4.1-0.8c-1.1-0.5-2.1-1.2-2.9-2.1c-0.8-0.9-1.3-2-1.7-3.2  c-0.4-1.2-0.6-2.5-0.6-3.9c0-1.4,0.2-2.7,0.6-4c0.4-1.2,1-2.3,1.7-3.2c0.8-0.9,1.7-1.6,2.9-2.1c1.1-0.5,2.5-0.8,4.1-0.8  c1.6,0,2.9,0.3,4.1,0.8c1.2,0.5,2.1,1.2,2.9,2.1c0.8,0.9,1.3,2,1.7,3.2c0.4,1.2,0.6,2.6,0.6,4c0,1.4-0.2,2.7-0.6,3.9  c-0.4,1.2-0.9,2.3-1.7,3.2c-0.8,0.9-1.7,1.6-2.9,2.1C257.1,84.4,255.8,84.6,254.2,84.6z"></path>
<path class="st0" d="M266.7,65c0.3-0.1,0.7-0.1,1-0.2c0.3,0,0.7-0.1,1.1-0.1c0.4,0,0.8,0,1.1,0.1c0.3,0,0.7,0.1,1,0.2  c0.1,0.1,0.1,0.3,0.2,0.5c0.1,0.2,0.1,0.5,0.2,0.7c0,0.3,0.1,0.5,0.1,0.8c0,0.2,0.1,0.5,0.1,0.6c0.3-0.4,0.5-0.7,0.9-1.1  c0.3-0.4,0.7-0.7,1.2-1c0.5-0.3,1-0.5,1.5-0.7c0.6-0.2,1.2-0.3,1.9-0.3c2.2,0,3.8,0.6,4.9,1.8c1.1,1.2,1.6,3.1,1.6,5.6v12.2  c-0.9,0.1-1.8,0.2-2.6,0.2c-0.9,0-1.7-0.1-2.6-0.2V73.4c0-1.3-0.2-2.4-0.6-3.1c-0.4-0.7-1.1-1.1-2.1-1.1c-0.4,0-0.9,0.1-1.3,0.2  c-0.4,0.1-0.8,0.4-1.2,0.7c-0.4,0.4-0.6,0.9-0.9,1.5c-0.2,0.6-0.3,1.5-0.3,2.5v10c-0.9,0.1-1.8,0.2-2.6,0.2c-0.9,0-1.7-0.1-2.6-0.2  V65"></path>
<path class="st0" d="M101.7,117.1c0.4,0,0.9,0.1,1.5,0.1c0.6,0.1,1.2,0.1,1.8,0.1c1.6,0,3.1-0.2,4.4-0.5c1.3-0.4,2.4-1,3.4-1.8  c0.9-0.9,1.6-2,2.1-3.4c0.5-1.4,0.7-3.2,0.7-5.3c0-3.7-0.9-6.4-2.8-8.1c-1.9-1.7-4.5-2.6-7.9-2.6c-0.5,0-1.1,0-1.8,0  c-0.6,0-1.1,0.1-1.6,0.1V117.1 M99.2,93.5c0.3,0,0.7-0.1,1.2-0.1c0.5,0,1-0.1,1.6-0.1c0.5,0,1.1-0.1,1.6-0.1c0.5,0,1,0,1.5,0  c2.2,0,4.2,0.3,5.8,0.9c1.7,0.6,3,1.5,4.1,2.6c1.1,1.1,1.9,2.5,2.4,4.1c0.5,1.6,0.8,3.5,0.8,5.5c0,8.9-4.4,13.3-13.1,13.3  c-0.5,0-1,0-1.6,0c-0.6,0-1.1-0.1-1.7-0.1c-0.5,0-1-0.1-1.5-0.1c-0.5-0.1-0.9-0.1-1.2-0.2V93.5z"></path>
<path class="st0" d="M134.7,110.4l-4.6-14.3l-4.5,14.3H134.7 M128.7,93.5c0.2,0,0.4,0,0.7-0.1c0.3,0,0.5,0,0.8,0c0.3,0,0.5,0,0.8,0  c0.3,0,0.5,0,0.7,0.1l8.6,25.7c-0.1,0-0.3,0-0.6,0.1c-0.3,0-0.5,0-0.7,0c-0.2,0-0.4,0-0.7,0c-0.2,0-0.4,0-0.6-0.1l-2.1-6.5h-10.6  l-2,6.5c-0.2,0-0.4,0-0.7,0.1c-0.2,0-0.5,0-0.7,0c-0.2,0-0.5,0-0.7,0c-0.3,0-0.4,0-0.6-0.1L128.7,93.5z"></path>
<path class="st0" d="M169.5,116.3c0.2,0.4,0.4,0.7,0.5,1c0.1,0.3,0.2,0.7,0.3,1c-0.8,0.4-1.8,0.7-2.9,0.9c-1.1,0.2-2.3,0.3-3.5,0.3  c-1.7,0-3.3-0.3-4.8-0.9c-1.4-0.6-2.7-1.4-3.7-2.5c-1-1.1-1.8-2.5-2.4-4.1c-0.6-1.6-0.9-3.5-0.9-5.6c0-2.1,0.3-4.1,0.8-5.7  c0.6-1.7,1.3-3.1,2.4-4.3c1-1.2,2.2-2,3.7-2.6c1.4-0.6,3.1-0.9,4.8-0.9c1.5,0,2.7,0.1,3.8,0.3c1,0.2,1.7,0.4,2.2,0.5  c0,0.4-0.1,0.8-0.2,1.1c-0.1,0.3-0.2,0.6-0.4,1c-0.3-0.1-0.6-0.2-0.9-0.3c-0.3-0.1-0.7-0.2-1.1-0.3c-0.4-0.1-0.9-0.1-1.4-0.2  c-0.5,0-1.2-0.1-1.9-0.1c-1.4,0-2.7,0.3-3.8,0.8c-1.1,0.5-2.1,1.3-2.9,2.2c-0.8,1-1.4,2.2-1.8,3.6c-0.4,1.4-0.6,3-0.6,4.8  c0,1.8,0.2,3.4,0.7,4.8c0.5,1.4,1.1,2.5,2,3.4c0.8,0.9,1.8,1.6,3,2c1.1,0.4,2.4,0.6,3.7,0.6c1.1,0,2.1-0.1,3.1-0.3  C168.1,116.9,168.8,116.6,169.5,116.3"></path>
<path class="st0" d="M183,117.4c1.4,0,2.6-0.3,3.6-0.8c1-0.5,1.8-1.3,2.5-2.3c0.7-1,1.2-2.1,1.5-3.5c0.3-1.4,0.5-2.8,0.5-4.5  s-0.2-3.1-0.5-4.5c-0.3-1.4-0.8-2.5-1.5-3.5c-0.7-1-1.5-1.7-2.5-2.3c-1-0.5-2.2-0.8-3.6-0.8c-1.4,0-2.6,0.3-3.6,0.8  c-1,0.5-1.8,1.3-2.5,2.3c-0.7,1-1.1,2.1-1.5,3.5c-0.3,1.4-0.5,2.8-0.5,4.5s0.2,3.1,0.5,4.5c0.3,1.4,0.8,2.5,1.5,3.5  c0.7,1,1.5,1.7,2.5,2.3C180.4,117.1,181.6,117.4,183,117.4 M183,119.7c-1.8,0-3.3-0.3-4.7-1c-1.3-0.7-2.4-1.6-3.3-2.8  c-0.9-1.2-1.5-2.6-2-4.2c-0.4-1.6-0.7-3.4-0.7-5.3c0-1.9,0.2-3.7,0.7-5.3c0.4-1.6,1.1-3,2-4.2c0.9-1.2,2-2.1,3.3-2.8  c1.3-0.7,2.9-1,4.7-1c1.8,0,3.3,0.3,4.7,1c1.3,0.7,2.4,1.6,3.3,2.8c0.9,1.2,1.5,2.6,2,4.2c0.4,1.6,0.7,3.4,0.7,5.3  c0,1.9-0.2,3.7-0.7,5.3c-0.4,1.6-1.1,3-2,4.2c-0.9,1.2-2,2.1-3.3,2.8C186.3,119.3,184.8,119.7,183,119.7z"></path>
<path class="st0" d="M198.9,93.4c0.5,0,1-0.1,1.4-0.1c0.4,0,0.8-0.1,1.1-0.1c0.4,0,0.8-0.1,1.2-0.1c0.4,0,0.9,0,1.4,0  c1.1,0,2.3,0.1,3.4,0.4c1.1,0.2,2.1,0.7,3,1.2c0.9,0.6,1.6,1.4,2.1,2.4c0.5,1,0.8,2.2,0.8,3.7c0,0.9-0.2,1.8-0.5,2.5  c-0.3,0.8-0.8,1.4-1.3,2.1c-0.5,0.6-1.2,1.1-1.9,1.6c-0.7,0.4-1.4,0.8-2.2,1.1l-0.3,0.1l8.2,11.1c-0.2,0-0.5,0.1-0.7,0.1h-1.4  c-0.2,0-0.5,0-0.7-0.1l-9-11.9v-0.1l0.8-0.2c0.8-0.2,1.6-0.5,2.4-0.8c0.8-0.3,1.4-0.8,2-1.3c0.6-0.5,1.1-1.1,1.4-1.7  c0.4-0.7,0.5-1.5,0.5-2.4c0-1.9-0.6-3.3-1.7-4.2c-1.1-0.9-2.7-1.4-4.6-1.4c-0.5,0-1,0-1.4,0c-0.4,0-0.9,0.1-1.5,0.1v23.8  c-0.2,0-0.4,0-0.6,0.1c-0.2,0-0.4,0-0.6,0c-0.2,0-0.4,0-0.6,0c-0.2,0-0.4,0-0.6-0.1V93.4"></path>
<path class="st0" d="M218.4,93.5c0.2,0,0.4,0,0.6-0.1s0.5,0,0.6,0c0.2,0,0.4,0,0.6,0c0.2,0,0.4,0,0.6,0.1V109c0,1.5,0.1,2.8,0.4,3.8  c0.2,1,0.6,1.9,1.1,2.6c0.5,0.7,1.2,1.1,1.9,1.4c0.8,0.3,1.7,0.4,2.8,0.4c2.2,0,3.8-0.6,4.8-1.9c1-1.3,1.5-3.4,1.5-6.4V93.5  c0.2,0,0.4,0,0.6-0.1c0.2,0,0.4,0,0.6,0c0.2,0,0.4,0,0.6,0c0.2,0,0.4,0,0.6,0.1v15.8c0,3.4-0.7,6-2.1,7.7c-1.4,1.7-3.6,2.6-6.6,2.6  c-3,0-5.2-0.9-6.6-2.6c-1.4-1.7-2.1-4.3-2.1-7.7V93.5"></path>
<path class="st0" d="M242.2,93.5c0.2,0,0.4,0,0.7-0.1c0.3,0,0.5,0,0.7,0c0.2,0,0.4,0,0.7,0c0.3,0,0.5,0,0.6,0.1l12.3,21.5V93.5  c0.2,0,0.3,0,0.6-0.1c0.2,0,0.4,0,0.6,0c0.2,0,0.4,0,0.6,0c0.2,0,0.4,0,0.6,0.1v25.7c-0.1,0-0.4,0-0.6,0.1c-0.3,0-0.5,0-0.7,0  c-0.2,0-0.4,0-0.7,0c-0.3,0-0.5,0-0.6-0.1l-12.3-21.3v21.3c-0.2,0-0.4,0-0.6,0.1c-0.2,0-0.4,0-0.6,0c-0.2,0-0.5,0-0.7,0  c-0.2,0-0.4,0-0.5-0.1V93.5"></path>
<path class="st0" d="M247.9,89.8c-0.5,0-1,0.1-1.3,0.3c-0.3,0.2-0.7,0.5-1.1,0.9c-0.4-0.5-0.7-1-0.9-1.6c0.4-0.4,0.8-0.8,1.4-1.1  c0.6-0.4,1.2-0.6,1.9-0.6c0.5,0,1.1,0.1,1.6,0.3c0.5,0.2,1.1,0.4,1.6,0.7c0.5,0.2,1,0.5,1.5,0.7c0.5,0.2,1,0.3,1.4,0.3  c0.5,0,0.9-0.1,1.2-0.3c0.3-0.2,0.7-0.5,1.1-0.9c0.2,0.3,0.4,0.5,0.5,0.8c0.1,0.3,0.3,0.6,0.4,0.8c-0.4,0.4-0.9,0.7-1.4,1.1  c-0.6,0.3-1.2,0.5-1.9,0.5c-0.5,0-1-0.1-1.6-0.3c-0.5-0.2-1-0.4-1.5-0.7c-0.5-0.2-1-0.5-1.5-0.7C248.8,89.9,248.3,89.8,247.9,89.8"></path>
<path class="st0" d="M278.1,110.4l-4.6-14.3l-4.5,14.3H278.1 M272.1,93.5c0.2,0,0.4,0,0.7-0.1c0.3,0,0.5,0,0.8,0c0.3,0,0.5,0,0.8,0  c0.3,0,0.5,0,0.7,0.1l8.6,25.7c-0.1,0-0.3,0-0.6,0.1c-0.3,0-0.5,0-0.8,0c-0.2,0-0.4,0-0.7,0c-0.2,0-0.4,0-0.6-0.1l-2.1-6.5h-10.6  l-2,6.5c-0.2,0-0.4,0-0.7,0.1c-0.2,0-0.5,0-0.7,0c-0.2,0-0.5,0-0.7,0c-0.2,0-0.4,0-0.6-0.1L272.1,93.5z"></path>
<path class="st0" d="M10,39.8l4.8,9.5c0.5,1.1,1.6,1.7,2.7,1.7c0.5,0,0.9-0.1,1.4-0.3c1.5-0.8,2.1-2.6,1.3-4.1l-4.6-9  c-0.1-0.3-0.1-0.6-0.1-0.9c0-2.2,1.8-4,4-4c1.6,0,3,0.9,3.7,2.4l1.8,4.1l3.1-3.2c0.1-0.1,6-6,14.8-5.6c0.3,0,0.5,0,0.8-0.1  c0.3,0.1,0.5,0.1,0.8,0.1c8.6-0.3,14.7,5.6,14.8,5.6l3.1,3.2l1.8-4.1c0.6-1.4,2.1-2.4,3.7-2.4c2.2,0,4,1.8,4,4c0,0.3,0,0.6-0.1,0.9  l-4.6,9c-0.8,1.5-0.2,3.3,1.3,4.1c0.4,0.2,0.9,0.3,1.4,0.3c1.1,0,2.2-0.6,2.7-1.7l4.8-9.5l0.1-0.2c0.3-0.9,0.4-1.9,0.4-2.9  c0-5.6-4.5-10.1-10.1-10.1c-2.7,0-5.2,1-7,2.8c-2.9-2.1-7.9-4.8-14.3-5.2v-3.3h3.1c1.7,0,3-1.3,3-3c0-1.7-1.3-3-3-3h-3.1v-3  c0-1.6-1.3-2.8-2.8-2.8c-1.6,0-2.8,1.3-2.8,2.8v3h-3.1c-1.7,0-3,1.3-3,3c0,1.7,1.3,3,3,3h3.1v3.3c-6.4,0.3-11.4,3.1-14.3,5.2  c-1.9-1.8-4.4-2.8-7-2.8C14,26.4,9.5,31,9.5,36.6c0,1,0.1,2,0.4,2.9L10,39.8"></path>
<path class="st0" d="M44.3,41.7c-0.2,0-0.4,0-0.5,0c-0.2,0-0.3,0-0.5,0c-0.3,0-7.6,0-18,2.4c-1.5,0.3-2.3,1.5-1.9,2.6  c0.4,0.9,1.5,1.5,2.7,1.5c0.3,0,0.5,0,0.8-0.1c9.4-2.1,16.2-2.2,16.3-2.2c0.2,0,0.4,0,0.5,0c0.2,0,0.3,0,0.5,0c0.1,0,6.8,0,16.3,2.2  c0.3,0.1,0.5,0.1,0.8,0.1c1.2,0,2.3-0.6,2.7-1.5c0.4-1.1-0.4-2.3-1.9-2.6C51.9,41.7,44.6,41.7,44.3,41.7"></path>
<path class="st0" d="M50.1,106.9c-1.3-0.2-2.9-0.4-4.3-0.5c-1.3-0.1-2.3-0.1-2.3-0.1s-1.2,0-2.7,0.1c-1.5,0.1-3.3,0.4-4.5,0.7  c-3.7,0.6-9.3,2.4-9.3,2.4c1.8-1.7,4.4-2.9,7.2-3.8c0,0,0,0,0,0c-0.9-0.7-1.5-2.2-1.5-5.2v-0.3L55,90.9l-22.4,5v-8.1L55,79.4  l-22.4,4.1v-8.3L55,68l-22.4,3c0.4-4.5,4.1-8.8,8.5-9.6c6.3-1.1,9.3,3.3,9.3,3.3v-5.9c0-1.5,0.7-2.8,2.8-2.8c1.5,0,1.9,0.8,1.9,2.8  V68l0,11.5v21.1c0,3-0.6,4.4-1.5,5.2c0,0,0,0,0,0c2.8,0.9,5.3,2.1,7.2,3.8C60.7,109.5,55,107.6,50.1,106.9 M77.5,71.2  c0,0-6.5-0.5-8.7-6.4c0,0-2.1-5.3,2.2-9.4c0,0-26.1-13.3-54.4,0.1c0,0,4.6,4.6,1.7,10.7c0,0-1.9,4.6-8.3,5.1c0,0-2.9,19.4,8,38.9  c0,0,5.3-2.7,8.3,1.4c0,0,3.8,4.6-1.2,8.8c0,0,6.7,9.1,18.9,11.1c0,0,13.1-2.6,18.6-11.1c0,0-4.6-3.6-1.7-8c0,0,3.1-5.1,8.7-2.1  C69.6,110.2,80.4,92.1,77.5,71.2z"></path>
<polyline class="st0" points="50.9,77.2 47.4,77.9 47.4,73.7 50.9,72.6 50.9,77.2 "></polyline>
<polyline class="st0" points="50.9,88.9 47.4,89.6 47.4,85.4 50.9,84.3 50.9,88.9 "></polyline>
</svg>