<?xml version="1.0" encoding="UTF-8" standalone="no"?>
<svg
   width="481.89062pt"
   height="86.5205pt"
   viewBox="0 0 481.89061 86.520501"
   version="1.1"
   id="svg33"
   sodipodi:docname="Legea logo.svg"
   inkscape:version="1.1.1 (3bf5ae0d25, 2021-09-20)"
   xmlns:inkscape="http://www.inkscape.org/namespaces/inkscape"
   xmlns:sodipodi="http://sodipodi.sourceforge.net/DTD/sodipodi-0.dtd"
   xmlns="http://www.w3.org/2000/svg"
   xmlns:svg="http://www.w3.org/2000/svg">
  <sodipodi:namedview
     id="namedview35"
     pagecolor="#ffffff"
     bordercolor="#999999"
     borderopacity="1"
     inkscape:pageshadow="0"
     inkscape:pageopacity="0"
     inkscape:pagecheckerboard="0"
     inkscape:document-units="pt"
     showgrid="false"
     inkscape:zoom="1.0225362"
     inkscape:cx="281.16363"
     inkscape:cy="33.739636"
     inkscape:window-width="1920"
     inkscape:window-height="1001"
     inkscape:window-x="-9"
     inkscape:window-y="-9"
     inkscape:window-maximized="1"
     inkscape:current-layer="svg33"
     fit-margin-top="0"
     fit-margin-left="0"
     fit-margin-right="0"
     fit-margin-bottom="0" />
  <defs
     id="defs14">
    <clipPath
       id="clip1">
      <path
         d="M 0,0 H 481.89062 V 87 H 0 Z m 0,0"
         id="path2" />
    </clipPath>
    <clipPath
       id="clip2">
      <path
         d="m 234,95 h 247.89062 v 10.46094 H 234 Z m 0,0"
         id="path5" />
    </clipPath>
    <clipPath
       id="clip3">
      <path
         d="m 117,95 h 125 v 10.46094 H 117 Z m 0,0"
         id="path8" />
    </clipPath>
    <clipPath
       id="clip4">
      <path
         d="m 0,95 h 125 v 10.46094 H 0 Z m 0,0"
         id="path11" />
    </clipPath>
  </defs>
  <g
     clip-path="url(#clip1)"
     clip-rule="nonzero"
     id="g18"
     transform="translate(0,-0.00293582)"
     style="fill:#053d82;fill-opacity:1">
    <path
       style="fill:#053d82;fill-opacity:1;fill-rule:evenodd;stroke:none"
       d="m 279.72656,84.617188 c 0.84766,-3.648438 2.23438,-6.773438 3.3125,-10.671875 0.85156,-3.085938 2.03516,-6.816407 3.11719,-10.230469 L 305.78906,1.335938 h 85.19141 c -0.125,5.546875 -4.62891,12.308593 -5.08594,17.800781 l -52.85156,-0.02734 -4.36719,13.378906 h 48.95313 c -0.9961,4.273438 -4.76563,13.320313 -5.08594,17.164063 h -49.58985 c -0.38671,4.671875 -4.04687,11.066406 -4.44921,15.894531 h 54.03906 c -0.80078,1.664063 -5.5625,17.144531 -5.72266,19.070313 z m -193.902341,0 26.066411,-83.28125 h 85.18749 c -0.50781,6.109375 -4.6289,12.332031 -5.08593,17.800781 -4.53516,0 -50.95313,-0.816406 -52.90235,0.496094 -1,0.667968 -3.89062,11.035156 -4.3125,12.855468 h 48.94922 c -0.72265,1.507813 -2.15234,6.566407 -2.76953,8.667969 -1.03906,3.527344 -1.44922,5.664063 -2.94922,8.496094 h -48.95312 l -5.08594,15.894531 h 54.67187 l -6.35546,19.070313 z m 284.175781,0 h 33.05859 c 1.50391,-2.847657 2.82813,-4.226563 4.58203,-6.859375 1.01172,-1.519532 3.78516,-6.492188 5.58985,-6.492188 h 34.32812 l 0.63672,13.351563 h 33.69531 l -5.99218,-41.691407 c -0.98047,-7.003906 -1.84766,-13.691406 -3,-20.519531 L 469.8125,1.335938 h -35.60156 c -0.59766,2.230468 -0.35547,1.109375 -1.6875,2.765625 z m 76.28906,-33.695313 v 1.90625 h -20.98047 c 0.70313,-2.632812 3.00391,-4.960937 4.44922,-6.992187 l 12.19531,-17.683594 c 0.58204,-0.902344 0.57422,-1.121094 1.26563,-1.914063 0.89453,-1.035156 0.33594,-0.851562 1.79687,-1.378906 l 0.89844,23.164063 c 0.14844,1.515625 0.375,0.988281 0.375,2.898437 z M 0,84.617188 h 82.011719 c 1.148437,-2.394532 6.125,-17.5625 6.355469,-20.34375 H 39.414063 c 0.25,-2.992188 3.648437,-12.152344 4.679687,-15.664063 1.609375,-5.46875 3.105469,-10.574219 4.777344,-15.566406 1.6875,-5.050781 9.617187,-28.039063 9.617187,-31.707031 H 27.972656 c -2.359375,0 -2.820312,4.367187 -4.371093,8.976562 -1.171875,3.484375 -2.300782,7.238281 -3.257813,10.730469 -1.03125,3.761719 -2.273437,6.726562 -3.40625,10.578125 L 6.761719,63.410156 C 5.613281,67.324219 4.835938,70.371094 3.582031,74.214844 2.53125,77.4375 1.269531,81.972656 0,84.617188 Z M 181.82031,56.007813 C 181.82031,68 186,74.96875 194.39062,80.3125 c 5.98047,3.804688 19.57813,6.210938 29.39063,6.210938 23.74219,0 35.62891,-5.042969 52.60937,-12.234375 4.91016,-2.078125 3.75,-4.683594 7.22657,-15.023438 L 290.53125,36.9375 h -49.58594 c -1.13281,4.863281 -4.8125,14.53125 -5.08594,17.800781 h 20.34375 c -0.26953,3.21875 -1.64062,4.40625 -1.90625,7.628907 -2.68359,0.222656 -6.33984,2.296875 -9.02734,3.050781 -8.31641,2.339844 -25,4.992187 -29.67187,-5.042969 -2.89454,-6.214844 -0.21875,-14.25 1.74218,-19.707031 3.61328,-10.042969 10.78125,-18.59375 21.53907,-21.054688 7.38281,-1.6875 21.53515,-2.214843 21.77343,8.421875 7.22657,0 14.42578,-1.585937 21.01172,-2.507812 2.59766,-0.363281 8.03906,-0.703125 10.16016,-1.316406 2.32422,-0.667969 2.8789,-1.160157 0.40625,-8.679688 C 286.53125,-1.816406 263.48828,0.0625 246.66406,0.0625 c -18.74219,0 -34.07812,7.300781 -44.60156,15.792969 -9.1875,7.421875 -20.24219,23.820312 -20.24219,40.152344"
       id="path16" />
  </g>
  <path
     style="opacity:0;fill:#ff0000;fill-rule:evenodd;stroke:#00cb00;stroke-width:0.159408"
     d="m 121.27063,92.894974 c 3.37442,-10.763763 11.13526,-35.626649 17.24631,-55.250859 l 11.11101,-35.6803787 56.43044,-0.00391 56.43044,-0.00391 -1.28579,4.1563319 c -0.70719,2.2859826 -2.3184,7.4569478 -3.58049,11.4910348 l -2.2947,7.334704 h -34.59139 c -33.31509,0 -34.64351,0.07125 -36.00418,1.931237 -1.36446,1.865174 -5.27654,13.74401 -5.27654,16.021978 0,0.814858 8.74769,1.117013 32.3386,1.117013 h 32.3386 l -0.69988,2.200412 c -0.38494,1.210226 -1.86099,5.941109 -3.28013,10.513074 l -2.58025,8.312664 -32.92552,0.257444 -32.92551,0.257446 -3.46766,10.72653 c -1.90721,5.899591 -3.46765,10.954708 -3.46765,11.233591 0,0.278883 16.33012,0.50706 36.28916,0.50706 28.6193,0 36.19409,0.25837 35.83928,1.222451 -0.24744,0.672347 -2.09124,6.173375 -4.09733,12.224513 l -3.64744,11.00205 h -57.01734 -57.01735 z"
     id="path3890"
     transform="scale(0.75)" />
</svg>
