<svg xmlns="http://www.w3.org/2000/svg" xmlns:xlink="http://www.w3.org/1999/xlink" id="Capa_1" x="0px" y="0px" viewBox="0 0 492 297" style="enable-background:new 0 0 492 297;" xml:space="preserve"><style type="text/css">	.st0{clip-path:url(#TROQUEL_2_);fill:#965ABE;}	.st1{fill:#965ABE;}</style><g>	<g>		<defs>			<path id="TROQUEL_1_" d="M210.7,17.7c-10.8,4.5-20.2,10.6-28.2,18.3c-4.4,4.3-8.3,9-11.6,14V14.3h-53.5v66.2L69.5,14.3H15.4    v164.6l54.1,0L69,122.2l49.2,56.7h52.6v-35.5c3.3,5,7.1,9.6,11.4,13.8c7.8,7.7,17.2,13.8,28,18.2c10.8,4.5,22.6,6.7,35.3,6.7    c12.7,0,24.5-2.2,35.3-6.7c10.8-4.5,20.2-10.6,28.2-18.3c4.9-4.8,9.1-10,12.7-15.8v37.9h54.1l-0.4-56.7l49.2,56.7l52.6,0V14.7    h-53.5v66.2l-47.9-66.2h-54.1v36.8c-3.5-5.7-7.7-10.9-12.5-15.6c-7.8-7.7-17.2-13.8-28-18.2c-10.8-4.5-22.6-6.7-35.3-6.7    C233.3,11,221.5,13.2,210.7,17.7"></path>		</defs>		<use xlink:href="#TROQUEL_1_" style="overflow:visible;fill:#965ABE;"></use>		<clipPath id="TROQUEL_2_">			<use xlink:href="#TROQUEL_1_" style="overflow:visible;"></use>		</clipPath>		<rect x="-8.8" y="-23.3" class="st0" width="510.3" height="240.6"></rect>	</g>	<g>		<path class="st1" d="M93.1,211.3c1.7-0.2,3-0.4,3.7-0.6c1.3-0.4,2-1.1,2-2c0-1.1-0.5-1.9-1.5-2.3c-1-0.4-2.5-0.6-4.5-0.6   c-2.2,0-3.8,0.4-4.8,1.2c-0.7,0.6-1.1,1.4-1.3,2.5h-9c0.2-2.4,1.1-4.3,2.6-5.8c2.5-2.4,6.7-3.6,12.8-3.6c3.9,0,7.4,0.6,10.5,1.8   c3.1,1.2,4.6,3.4,4.6,6.6v12.3c0,0.9,0,1.9,0.1,3.1c0.1,0.9,0.3,1.5,0.6,1.9c0.3,0.3,0.8,0.6,1.4,0.8v1H99.9   c-0.3-0.5-0.5-1.1-0.6-1.5c-0.1-0.5-0.2-1-0.3-1.6c-1.3,1.1-2.8,2-4.5,2.7c-2,0.9-4.3,1.3-6.9,1.3c-3.3,0-5.9-0.7-8.1-2.1   c-2.1-1.4-3.2-3.4-3.2-5.9c0-3.3,1.7-5.7,5.1-7.2c1.9-0.8,4.6-1.4,8.3-1.7L93.1,211.3z M98.8,214.5c-0.6,0.3-1.2,0.5-1.8,0.7   c-0.6,0.2-1.4,0.3-2.5,0.5l-2.1,0.3c-2,0.3-3.4,0.6-4.3,1c-1.5,0.6-2.2,1.6-2.2,3c0,1.2,0.4,2.1,1.3,2.6c0.9,0.5,2,0.8,3.3,0.8   c2,0,3.9-0.4,5.6-1.3c1.7-0.9,2.6-2.5,2.7-4.9V214.5z M104.6,189.7l-10,7.4h-6.8l6.3-7.4H104.6z"></path>		<polygon class="st1" points="156.9,200.7 167,200.7 154.1,227.6 144.2,227.6 131.4,200.7 141.9,200.7 149.3,220.6   "></polygon>		<path class="st1" d="M181.8,197.5h-9.5V191h9.5V197.5z M172.4,200.7h9.5v26.9h-9.5V200.7z"></path>		<path class="st1" d="M220.7,224.3c-3,2.8-7.6,4.2-13.7,4.2c-6.1,0-10.7-1.4-13.7-4.2c-3-2.8-4.5-6.2-4.5-10.1   c0-3.9,1.5-7.2,4.5-10.1c3-2.8,7.6-4.3,13.7-4.3c6.1,0,10.7,1.4,13.7,4.3c3,2.8,4.5,6.2,4.5,10.1   C225.2,218.2,223.7,221.5,220.7,224.3 M213.2,220.5c1.5-1.5,2.2-3.5,2.2-6.2c0-2.7-0.7-4.8-2.2-6.2c-1.5-1.5-3.6-2.2-6.3-2.2   c-2.7,0-4.8,0.7-6.3,2.2c-1.5,1.5-2.2,3.5-2.2,6.2c0,2.7,0.7,4.8,2.2,6.2c1.5,1.5,3.6,2.2,6.3,2.2   C209.7,222.6,211.7,221.9,213.2,220.5"></path>		<rect x="232.1" y="191.2" class="st1" width="9.3" height="36.4"></rect>		<path class="st1" d="M273.8,201.3c2.5,0.8,4.6,2.2,6.2,4c1.5,1.6,2.4,3.5,2.8,5.6c0.3,1.2,0.4,3,0.3,5.3h-26   c0.1,2.7,1.4,4.6,3.7,5.7c1.4,0.7,3.1,1,5.2,1c2.1,0,3.9-0.4,5.2-1.2c0.7-0.4,1.4-1.1,1.9-1.9h9.5c-0.3,1.6-1.4,3.2-3.5,4.9   c-3.2,2.6-7.7,3.9-13.4,3.9c-4.8,0-8.9-1.1-12.6-3.3c-3.6-2.2-5.5-5.8-5.5-10.8c0-4.7,1.6-8.2,4.9-10.7c3.3-2.5,7.5-3.7,12.8-3.7   C268.5,200,271.3,200.4,273.8,201.3 M259.8,207.3c-1.3,1-2.1,2.4-2.5,4.2h16.1c-0.2-1.9-1-3.3-2.5-4.3c-1.5-1-3.3-1.5-5.5-1.5   C263,205.8,261.2,206.3,259.8,207.3"></path>		<path class="st1" d="M316.7,202.3c2.3,1.5,3.5,3.9,3.5,7.2v18.1h-9.6v-16.4c0-1.4-0.2-2.5-0.7-3.3c-0.9-1.4-2.6-2.1-5.2-2.1   c-3.1,0-5.3,1-6.5,3c-0.6,1.1-0.9,2.4-0.9,4.1v14.6h-9.3v-26.9h9v3.9c1.2-1.4,2.3-2.4,3.4-3c1.9-1.1,4.3-1.6,7.3-1.6   C311.3,200.1,314.3,200.8,316.7,202.3"></path>		<path class="st1" d="M350.2,210.4c-0.2-1-0.6-1.9-1.3-2.7c-1.1-1.1-2.7-1.6-4.9-1.6c-3.2,0-5.3,1.2-6.5,3.5   c-0.6,1.2-0.9,2.9-0.9,5c0,2,0.3,3.6,0.9,4.8c1.1,2.2,3.2,3.4,6.3,3.4c2.2,0,3.7-0.4,4.7-1.3c0.9-0.9,1.5-2,1.7-3.5h9.5   c-0.2,2.1-1.2,4.2-3.1,6.1c-2.9,3.1-7.3,4.6-13,4.6c-5.8,0-10-1.3-12.7-3.9c-2.7-2.6-4.1-5.9-4.1-10c0-4.6,1.5-8.2,4.5-10.8   c3-2.6,7.1-3.9,12.4-3.9c4.5,0,8.2,0.8,11,2.3c2.9,1.5,4.5,4.2,5.1,8H350.2z"></path>		<path class="st1" d="M375.8,197.5h-9.5V191h9.5V197.5z M366.3,200.7h9.5v26.9h-9.5V200.7z"></path>		<path class="st1" d="M399,211.3c1.7-0.2,3-0.4,3.7-0.6c1.3-0.4,2-1.1,2-2c0-1.1-0.5-1.9-1.5-2.3c-1-0.4-2.5-0.6-4.5-0.6   c-2.2,0-3.8,0.4-4.8,1.2c-0.7,0.6-1.1,1.4-1.3,2.5h-9c0.2-2.4,1.1-4.3,2.6-5.8c2.5-2.4,6.7-3.6,12.8-3.6c3.9,0,7.4,0.6,10.5,1.8   c3,1.2,4.6,3.4,4.6,6.6v12.3c0,0.9,0,1.9,0.1,3.1c0.1,0.9,0.3,1.5,0.6,1.9c0.3,0.3,0.8,0.6,1.4,0.8v1h-10.2   c-0.3-0.5-0.5-1.1-0.6-1.5c-0.1-0.5-0.2-1-0.3-1.6c-1.3,1.1-2.8,2-4.5,2.7c-2,0.9-4.3,1.3-6.9,1.3c-3.3,0-5.9-0.7-8.1-2.1   c-2.1-1.4-3.2-3.4-3.2-5.9c0-3.3,1.7-5.7,5.1-7.2c1.9-0.8,4.6-1.4,8.3-1.7L399,211.3z M404.7,214.5c-0.6,0.3-1.2,0.5-1.8,0.7   c-0.6,0.2-1.4,0.3-2.5,0.5l-2.1,0.3c-2,0.3-3.4,0.6-4.3,1c-1.5,0.6-2.2,1.6-2.2,3c0,1.2,0.4,2.1,1.3,2.6c0.9,0.5,2,0.8,3.3,0.8   c2,0,3.9-0.4,5.6-1.3c1.7-0.9,2.6-2.5,2.7-4.9V214.5z"></path>		<path class="st1" d="M111,248.4c1.7,0.7,3,1.7,4.1,3v-12.8h9.5v36.4h-9.1v-3.7c-1.3,1.6-2.9,2.8-4.6,3.5c-1.7,0.7-3.8,1.1-6.4,1.1   c-4.2,0-7.7-1.3-10.5-3.8c-2.9-2.5-4.3-5.8-4.3-9.8c0-4.6,1.4-8.2,4.2-10.8c2.8-2.6,6.6-4,11.3-4   C107.4,247.3,109.3,247.6,111,248.4 M113.3,267.5c1.4-1.5,2.1-3.4,2.1-5.8c0-3.3-1.1-5.6-3.3-7.1c-1.4-0.9-2.9-1.3-4.7-1.3   c-2.7,0-4.7,0.8-6,2.3c-1.3,1.6-1.9,3.5-1.9,5.8c0,2.5,0.7,4.5,2,6c1.3,1.5,3.3,2.2,5.9,2.2C109.9,269.8,111.9,269,113.3,267.5"></path>		<path class="st1" d="M156.3,248.5c2.5,0.8,4.6,2.2,6.2,4c1.5,1.6,2.4,3.5,2.8,5.6c0.3,1.2,0.4,3,0.3,5.3h-26   c0.1,2.7,1.4,4.6,3.7,5.7c1.4,0.7,3.1,1,5.2,1c2.1,0,3.9-0.4,5.2-1.2c0.7-0.4,1.4-1.1,1.9-1.9h9.5c-0.3,1.6-1.4,3.2-3.5,4.9   c-3.2,2.6-7.7,3.9-13.4,3.9c-4.8,0-8.9-1.1-12.6-3.3c-3.6-2.2-5.5-5.8-5.5-10.8c0-4.7,1.6-8.2,4.9-10.7c3.3-2.5,7.5-3.7,12.8-3.7   C151,247.2,153.8,247.6,156.3,248.5 M142.3,254.5c-1.3,1-2.1,2.4-2.5,4.2h16.1c-0.2-1.9-1-3.3-2.5-4.3c-1.5-1-3.3-1.5-5.5-1.5   C145.5,253,143.6,253.5,142.3,254.5"></path>		<polygon class="st1" points="185.4,274.8 197.6,261.2 186,248 197.4,248 203.4,255.8 209.2,248 220.3,248 208.6,261.1    220.8,274.8 209.1,274.8 203,266.7 196.8,274.8   "></polygon>		<path class="st1" d="M249.6,248.5c2.5,0.8,4.6,2.2,6.2,4c1.5,1.6,2.4,3.5,2.8,5.6c0.3,1.2,0.4,3,0.3,5.3h-26   c0.1,2.7,1.4,4.6,3.7,5.7c1.4,0.7,3.1,1,5.2,1c2.1,0,3.9-0.4,5.2-1.2c0.7-0.4,1.4-1.1,1.9-1.9h9.5c-0.3,1.6-1.4,3.2-3.5,4.9   c-3.2,2.6-7.7,3.9-13.4,3.9c-4.8,0-8.9-1.1-12.6-3.3c-3.6-2.2-5.5-5.8-5.5-10.8c0-4.7,1.6-8.2,4.9-10.7c3.3-2.5,7.5-3.7,12.8-3.7   C244.3,247.2,247.1,247.6,249.6,248.5 M235.6,254.5c-1.3,1-2.1,2.4-2.5,4.2h16.1c-0.2-1.9-1-3.3-2.5-4.3c-1.5-1-3.3-1.5-5.5-1.5   C238.8,253,236.9,253.5,235.6,254.5 M252.2,236.9l-10,7.4h-6.8l6.3-7.4H252.2z"></path>		<path class="st1" d="M292.5,249.5c2.3,1.5,3.5,3.9,3.5,7.2v18.1h-9.6v-16.4c0-1.4-0.2-2.5-0.7-3.3c-0.9-1.4-2.6-2.1-5.2-2.1   c-3.1,0-5.3,1-6.5,3c-0.6,1.1-0.9,2.4-0.9,4.1v14.6h-9.3V248h9v3.9c1.2-1.4,2.3-2.4,3.4-3c1.9-1.1,4.3-1.6,7.3-1.6   C287.1,247.3,290.1,248,292.5,249.5"></path>		<path class="st1" d="M327.9,248.5c2.5,0.8,4.5,2.2,6.2,4c1.5,1.6,2.4,3.5,2.8,5.6c0.3,1.2,0.4,3,0.3,5.3h-26   c0.1,2.7,1.4,4.6,3.7,5.7c1.4,0.7,3.1,1,5.2,1c2.1,0,3.9-0.4,5.2-1.2c0.7-0.4,1.4-1.1,1.9-1.9h9.5c-0.3,1.6-1.4,3.2-3.5,4.9   c-3.2,2.6-7.7,3.9-13.4,3.9c-4.8,0-8.9-1.1-12.6-3.3c-3.6-2.2-5.5-5.8-5.5-10.8c0-4.7,1.6-8.2,4.9-10.7c3.3-2.5,7.5-3.7,12.8-3.7   C322.6,247.2,325.4,247.6,327.9,248.5 M314,254.5c-1.3,1-2.1,2.4-2.5,4.2h16.1c-0.2-1.9-1-3.3-2.5-4.3c-1.5-1-3.3-1.5-5.5-1.5   C317.1,253,315.3,253.5,314,254.5"></path>		<path class="st1" d="M361.8,247.3c0.1,0,0.4,0,0.8,0v7.2c-0.6,0-1.1-0.1-1.6-0.1c-0.5,0-0.8,0-1.1,0c-3.8,0-6.3,0.9-7.6,2.8   c-0.7,1-1.1,2.6-1.1,4.8v12.9h-9.4v-26.9h8.9v4.7c1.4-1.8,2.7-3,3.8-3.7c1.7-1.1,4-1.7,6.8-1.7   C361.6,247.3,361.7,247.3,361.8,247.3"></path>		<path class="st1" d="M397.9,271.5c-3,2.8-7.6,4.2-13.7,4.2c-6.1,0-10.7-1.4-13.7-4.2c-3-2.8-4.5-6.2-4.5-10.1   c0-3.9,1.5-7.2,4.5-10.1c3-2.8,7.6-4.3,13.7-4.3c6.1,0,10.7,1.4,13.7,4.3c3,2.8,4.5,6.2,4.5,10.1   C402.4,265.4,400.9,268.7,397.9,271.5 M390.4,267.7c1.5-1.5,2.2-3.5,2.2-6.2s-0.7-4.8-2.2-6.2c-1.5-1.5-3.6-2.2-6.3-2.2   c-2.7,0-4.8,0.7-6.3,2.2c-1.5,1.5-2.2,3.5-2.2,6.2s0.7,4.8,2.2,6.2c1.5,1.5,3.6,2.2,6.3,2.2C386.9,269.9,389,269.1,390.4,267.7"></path>	</g></g></svg>