<svg xmlns="http://www.w3.org/2000/svg" xmlns:xlink="http://www.w3.org/1999/xlink" id="Capa_1" x="0px" y="0px" viewBox="0 0 291 92.4" style="enable-background:new 0 0 291 92.4;" xml:space="preserve"><g>	<path d="M100.7,16.1l-8.8,12.6l9.4,13.5h-4.8l-7.2-10.3l-7,10.3h-4.6l9.4-13.5l-8.7-12.5h4.8l6.5,9.4l6.4-9.4H100.7z M115.3,38.9  c-3.7,0-5.8-2.3-5.8-5.9V16.1h-4v17.1c0,6.3,3.8,9.7,9.8,9.7c6.3,0,10.6-3.4,10.6-9.7V16.1h-4V33C121.9,36.6,119.4,38.9,115.3,38.9   M149.9,16.1V35l-14-18.9h-3.4v26h3.9V23.2l14,18.9h3.4v-26H149.9z M182.7,16.1H158l1.6,3.8h8.7v22.2h4V19.9h8.7L182.7,16.1z   M193.6,16.1h-4l-11.2,26h4.2l2.9-6.9h12.1l2.9,6.9h4.3L193.6,16.1z M187.1,31.4l4.5-10.7l4.4,10.7H187.1z M99.8,66.6  c0-8-4.9-12.8-12.6-12.8h-9.4v26h9.7C94.9,79.8,99.8,74.8,99.8,66.6 M95.6,66.6c0,5.9-3.5,9.4-8.6,9.4h-5.2V57.7h5.1  C92.1,57.7,95.6,60.9,95.6,66.6 M121.4,76h-12.3v-7.5h11.2v-3.8h-11.2v-7.1h12l1.6-3.8h-17.6v26h18L121.4,76z M160,67  c0-0.4,0-0.9-0.1-1.2h-12.4l1.6,3.8h6.5c-0.9,4.6-4.1,7.1-8.1,7.1c-4.8,0-8.7-3.7-8.7-10c0-5.8,3.7-9.4,9.3-9.4  c2.8,0,6.6,1.5,9.5,3.6v-4.5c-2.6-1.8-6.2-3.1-9.6-3.1c-8.3,0-13.4,5.4-13.4,13.4c0,8.7,5.3,14,12.9,14C154.9,80.6,160,75.3,160,67   M176.4,53.8h-4l-11.2,26h4.2l2.9-6.9h12.1l2.9,6.9h4.3L176.4,53.8z M170,69.1l4.5-10.7l4.4,10.7H170z M208.3,76h-12.7V53.8h-4v26  h18.3L208.3,76z M218.3,53.8h-4v26h4V53.8z M236.1,53.2c-7.5,0-12.5,5.2-12.5,13.4c0,8.6,4.8,14,12,14c3.8,0,7.7-1.5,10.2-4.1  l-2.6-3c-2,1.8-4.9,3.1-7.6,3.1c-4.5,0-7.8-3.7-7.8-10c0-5.8,3.4-9.4,8.4-9.4c2.6,0,6,1.3,8.7,3.2V56  C242.5,54.4,239.2,53.2,236.1,53.2 M255,53.8h-4v26h4V53.8z M273.8,53.8h-4l-11.2,26h4.2l2.9-6.9h12.1l2.9,6.9h4.3L273.8,53.8z   M267.3,69.1l4.5-10.7l4.4,10.7H267.3z"></path>	<g>		<g>			<path d="M6,8.1v79.7h55.8V8.1H6z M31.9,14.7h1.3v-1.3h1.3v1.3h1.3v1.3h-1.3v1.3h-1.3v-1.3h-1.3V14.7z M22,71.9h-2.7v2.7h-2.7    v-2.7H14v-2.7h2.7v-2.7h2.7v2.7H22V71.9z M22,55.9h-2.7v2.7h-2.7v-2.7H14v-2.7h2.7v-2.7h2.7v2.7H22V55.9z M22,40h-2.7v2.7h-2.7    V40H14v-2.7h2.7v-2.7h2.7v2.7H22V40z M35.3,67.8c0,0.5-0.1,0.9-0.1,1.4c0,4,1.2,7.6,3.3,10.6h-9.3c2.1-3,3.3-6.7,3.3-10.6    c0-0.5,0-1-0.1-1.4c-4.5-0.7-7.9-4.5-7.9-9.2h18.6C43.2,63.2,39.8,67.1,35.3,67.8z M37.9,37.3V40h-2.7v2.7h-2.7V40h-2.7v-2.7h2.7    v-2.7h2.7v2.7H37.9z M33.9,45.3c2.9,0,5.3,2.4,5.3,5.3c0,2.9-2.4,5.3-5.3,5.3c-2.9,0-5.3-2.4-5.3-5.3    C28.6,47.7,31,45.3,33.9,45.3z M43.2,31.3H24.6v-2h18.6V31.3z M45.1,26l-1,1.4h-2.5l1.8-2.6c0.3-0.4,0.4-1,0.4-1.4    c0-0.6-0.2-1.2-0.6-1.6c-0.5-0.5-1.1-0.7-1.8-0.7c-0.3,0-0.5,0-0.5,0l0,0c0.1,0.5,0.2,1,0.2,1.5c0,0.9-0.1,1.6-0.5,2.4l-1.4,2.3    h-2.4l2-3.3c0.2-0.3,0.3-0.9,0.3-1.4c0-0.7-0.2-1.2-0.7-1.7c-0.5-0.5-1.1-0.8-1.8-0.8c-0.8,0-1.4,0.2-1.8,0.7v6.5h-2v-6.5    c-0.4-0.5-1-0.7-1.8-0.7c-0.7,0-1.2,0.3-1.8,0.8c-0.4,0.5-0.7,1-0.7,1.7c0,0.5,0.1,1.1,0.3,1.4l2,3.3h-2.4L27.2,25    c-0.5-0.8-0.5-1.5-0.5-2.4c0-0.5,0.1-1,0.2-1.5l0,0c0,0-0.2,0-0.5,0c-0.7,0-1.3,0.3-1.8,0.7c-0.4,0.4-0.6,0.9-0.6,1.6    c0,0.4,0.1,0.9,0.4,1.4l1.8,2.6h-2.5l-1-1.4c-0.5-0.8-0.8-1.6-0.8-2.5c0-1.2,0.4-2.3,1.3-3.1c0.9-0.9,1.9-1.3,3.1-1.3    c0.5,0,1.1,0.1,1.6,0.3c0,0,0.1-0.1,0.1-0.1c0.8-0.7,1.8-1.1,3-1.1c1,0,2,0.3,2.8,0.9c0.8-0.6,1.8-0.9,2.8-0.9    c1.2,0,2.2,0.4,3,1.1c0.1,0,0.1,0.1,0.1,0.1c0.6-0.2,1.1-0.3,1.6-0.3c1.2,0,2.3,0.4,3.1,1.3c0.9,0.8,1.3,1.8,1.3,3.1    C45.9,24.4,45.6,25.2,45.1,26z M53.8,71.9h-2.7v2.7h-2.7v-2.7h-2.7v-2.7h2.7v-2.7h2.7v2.7h2.7V71.9z M53.8,55.9h-2.7v2.7h-2.7    v-2.7h-2.7v-2.7h2.7v-2.7h2.7v2.7h2.7V55.9z M53.8,40h-2.7v2.7h-2.7V40h-2.7v-2.7h2.7v-2.7h2.7v2.7h2.7V40z"></path>		</g>	</g></g></svg>